# xmcd CD database file
#
# Track frame offsets:
#	150
#	17483
#	38309
#	56031
#	74600
#	92752
#	115355
#	132078
#	148125
#	165364
#	185130
#	208091
#
# Disc length: 3033 seconds
#
# Revision: 2
# Processed by: cddbd v1.4b41PL1 Copyright (c) Steve Scherf et al.
# Submitted via: Feurio! 1.50.2ß - http://www.feurio.com
#
DISCID=aa0bd70c
DTITLE=Various Artist - Master Mix Dez. 1999
DYEAR=1900
DGENRE=
TTITLE0=??? - Jennifer Lopez - If you had my love
TTITLE1=??? - Mark Morrison - Return of the Mac (C&J Street Mix)
TTITLE2=??? - Faith Evans feat. Puff Daddy - All night long
TTITLE3=??? - Next - Real close
TTITLE4=??? - Tatyana Ali feat. Will Smith - Boy you knock me out
TTITLE5=??? - R-Kelly feat. Keith Murray - Home alone
TTITLE6=Usher - You make me wanna
TTITLE7=TLC - No scrubs
TTITLE8=Usher - Nice and slow
TTITLE9=Whitney Houston - My love is your love
TTITLE10=Mariah Carey and Whitney Houston - When you believe
TTITLE11=Divine - Lately (Remix)
EXTD=
EXTT0=
EXTT1=
EXTT2=
EXTT3=
EXTT4=
EXTT5=
EXTT6=
EXTT7=
EXTT8=
EXTT9=
EXTT10=
EXTT11=
PLAYORDER=
